<?xml version="1.0" standalone="no"?>
<!DOCTYPE svg PUBLIC "-//W3C//DTD SVG 20010904//EN"
 "http://www.w3.org/TR/2001/REC-SVG-20010904/DTD/svg10.dtd">
<svg version="1.0" xmlns="http://www.w3.org/2000/svg"
 width="2125.000000pt" height="2125.000000pt" viewBox="0 0 2125.000000 2125.000000"
 preserveAspectRatio="xMidYMid meet">
<metadata>
Created by potrace 1.14, written by Peter Selinger 2001-2017
</metadata>
<g transform="translate(0.000000,2125.000000) scale(0.100000,-0.100000)"
fill="#000000" stroke="none">
<path d="M9950 19636 c-9 -8 -64 -18 -140 -25 -69 -7 -145 -17 -170 -22 -24
-6 -104 -14 -177 -20 -74 -5 -155 -14 -181 -20 -26 -6 -92 -19 -147 -29 -55
-10 -131 -25 -170 -34 -124 -30 -268 -67 -335 -86 -36 -11 -93 -24 -127 -29
-34 -5 -74 -16 -90 -24 -15 -8 -52 -20 -81 -26 -29 -6 -66 -18 -81 -26 -16 -8
-48 -17 -72 -21 -24 -4 -57 -13 -72 -21 -16 -8 -59 -23 -95 -33 -152 -42 -203
-58 -216 -69 -8 -7 -39 -18 -68 -26 -29 -7 -91 -30 -138 -50 -47 -20 -98 -41
-115 -45 -57 -16 -149 -54 -325 -138 -58 -27 -139 -65 -180 -83 -41 -19 -102
-50 -135 -70 -33 -20 -141 -78 -240 -128 -98 -51 -200 -106 -225 -123 -25 -17
-68 -43 -97 -59 -40 -21 -294 -185 -394 -253 -16 -11 -265 -200 -528 -400 -68
-52 -127 -98 -130 -103 -3 -5 -46 -42 -96 -83 -49 -40 -114 -96 -144 -124
-108 -101 -614 -613 -679 -686 -37 -41 -99 -109 -138 -151 -39 -41 -90 -102
-114 -135 -24 -32 -73 -95 -110 -139 -37 -44 -102 -131 -146 -194 -43 -63
-104 -151 -136 -195 -100 -144 -184 -269 -243 -366 -32 -52 -72 -117 -90 -145
-76 -120 -101 -165 -258 -465 -33 -63 -68 -131 -78 -150 -11 -19 -19 -38 -19
-42 0 -4 -22 -54 -50 -112 -27 -58 -50 -109 -50 -113 0 -4 -12 -30 -25 -58
-14 -27 -25 -56 -25 -63 0 -7 -7 -23 -15 -35 -15 -24 -92 -203 -125 -292 -10
-27 -32 -86 -48 -130 -45 -120 -49 -133 -78 -230 -14 -49 -37 -123 -50 -163
-13 -40 -24 -79 -24 -87 0 -8 -11 -50 -25 -92 -57 -175 -64 -201 -75 -263 -6
-35 -16 -72 -21 -82 -10 -18 -50 -206 -74 -348 -8 -47 -19 -101 -25 -120 -6
-19 -15 -71 -21 -115 -5 -44 -21 -134 -34 -200 -40 -204 -81 -699 -69 -846 4
-50 2 -83 -5 -97 l-12 -22 -857 -1 c-471 0 -921 -4 -1000 -8 -203 -11 -195 2
-219 -347 -6 -96 11 -145 61 -172 29 -16 236 -17 3341 -14 2072 2 3315 0 3324
-6 17 -12 30 -79 31 -158 0 -79 92 -518 135 -648 18 -56 49 -155 70 -221 20
-66 43 -139 52 -163 32 -89 181 -399 215 -447 19 -27 54 -84 77 -125 38 -68
122 -194 211 -315 19 -27 74 -93 123 -148 48 -55 87 -108 87 -120 0 -26 -28
-71 -115 -187 -39 -52 -95 -131 -123 -175 -29 -44 -73 -109 -99 -145 -27 -35
-80 -118 -120 -182 -39 -65 -85 -137 -101 -160 -16 -24 -58 -86 -92 -138 -35
-52 -98 -147 -140 -210 -42 -63 -122 -185 -178 -270 -56 -85 -124 -189 -152
-230 -27 -41 -75 -113 -105 -160 -168 -262 -300 -418 -446 -531 -83 -63 -137
-90 -294 -147 l-100 -37 -1983 0 c-1972 0 -1984 0 -1999 -20 -18 -25 -11 -90
16 -143 10 -20 46 -68 79 -105 35 -39 67 -87 76 -112 21 -64 58 -108 118 -141
l53 -29 1640 -3 c1011 -2 1705 1 1810 7 318 19 500 76 794 251 154 92 373 314
516 525 37 55 82 118 100 140 17 22 60 87 95 145 34 58 77 123 95 145 17 22
60 86 94 143 34 57 79 127 99 155 21 29 67 99 102 157 35 58 86 133 112 168
27 35 56 78 64 95 9 18 58 93 108 167 51 74 107 162 126 195 37 65 65 106 121
175 20 25 56 83 80 130 49 96 95 160 117 160 22 0 77 -36 162 -105 106 -86
277 -209 352 -251 127 -73 483 -247 613 -301 289 -120 604 -214 795 -238 30
-3 100 -15 155 -25 55 -10 191 -26 301 -35 188 -16 219 -16 460 0 143 9 275
20 294 25 19 5 71 16 115 25 266 54 765 220 990 330 72 34 157 72 190 84 69
25 85 36 109 73 13 20 16 38 12 63 -7 35 -23 53 -137 161 -30 28 -75 74 -100
102 -73 80 -141 81 -264 2 -33 -21 -103 -55 -155 -75 -52 -20 -113 -45 -136
-56 -22 -10 -48 -19 -58 -19 -9 0 -31 -7 -49 -16 -91 -48 -421 -127 -654 -156
-149 -20 -605 -16 -773 6 -460 59 -647 101 -870 196 -25 10 -99 42 -165 70
-137 58 -214 97 -294 150 -31 20 -99 60 -151 89 -240 131 -681 533 -854 776
-47 66 -105 147 -129 180 -85 116 -297 513 -297 557 0 7 -7 24 -16 36 -32 46
-131 348 -173 527 -11 44 -24 91 -29 105 -5 14 -15 59 -22 100 -6 41 -18 107
-26 145 -20 96 -30 379 -23 620 6 208 25 341 75 534 13 51 24 106 24 122 0 16
19 84 41 152 23 67 47 145 54 172 19 73 101 264 177 411 25 49 30 68 26 102
-5 37 -20 55 -148 182 -112 112 -149 143 -176 147 -65 11 -81 -1 -121 -85
-121 -260 -160 -346 -172 -387 -7 -22 -23 -65 -36 -95 -66 -152 -141 -388
-176 -555 -12 -55 -23 -103 -25 -106 -8 -14 -47 -271 -53 -357 -5 -60 -12 -98
-22 -107 -21 -21 -1711 -27 -1748 -7 l-23 14 4 176 c5 170 23 321 64 527 9 44
20 114 26 155 5 41 16 100 25 130 8 30 24 93 34 140 17 77 28 121 89 330 10
36 32 101 48 145 16 44 38 105 50 136 11 31 25 64 31 75 17 30 71 161 71 172
0 12 66 164 103 237 83 167 174 337 201 379 19 28 59 94 89 146 56 94 115 181
192 283 22 28 52 70 68 92 84 124 265 339 455 545 126 136 144 153 297 290
225 202 303 266 365 305 47 29 97 68 190 146 30 26 66 52 79 59 14 7 70 45
125 85 56 39 146 96 201 125 55 29 125 69 155 88 113 72 460 232 620 285 41
14 113 39 160 57 90 33 232 77 340 105 138 35 210 54 337 89 73 20 179 43 235
52 98 14 156 24 349 58 47 9 196 20 330 26 134 5 269 12 299 15 30 3 174 1
320 -5 256 -9 322 -16 615 -66 50 -9 131 -22 180 -30 170 -26 317 -54 388 -75
149 -43 273 -81 312 -94 22 -8 67 -21 100 -29 101 -26 214 -65 340 -118 197
-83 405 -185 411 -203 4 -9 -1 -33 -10 -53 -32 -68 -129 -225 -186 -301 -32
-42 -63 -87 -70 -101 -7 -14 -47 -76 -89 -138 -42 -62 -96 -146 -120 -185 -24
-40 -68 -109 -98 -155 -30 -46 -88 -140 -130 -210 -42 -70 -88 -146 -104 -169
-16 -23 -29 -44 -29 -47 0 -15 -94 -142 -113 -153 -33 -19 -91 -6 -187 42 -47
23 -130 57 -185 74 -55 18 -127 41 -160 51 -33 11 -89 24 -125 30 -35 7 -82
18 -105 25 -22 7 -56 16 -75 20 -19 3 -80 17 -135 29 -245 58 -577 82 -895 65
-239 -12 -364 -30 -495 -68 -55 -16 -163 -44 -240 -61 -76 -18 -162 -40 -190
-50 -27 -10 -90 -30 -140 -46 -158 -48 -320 -120 -575 -254 -124 -66 -122
-124 9 -235 39 -33 85 -80 102 -105 88 -124 141 -125 384 -3 204 103 337 154
436 169 24 3 67 14 94 24 28 10 75 21 105 25 30 4 93 15 140 25 95 21 455 50
613 50 248 0 481 -27 702 -80 88 -21 178 -41 200 -45 115 -19 352 -105 540
-197 107 -52 389 -209 414 -232 9 -8 63 -45 121 -84 58 -39 160 -118 228 -175
135 -114 397 -393 467 -497 25 -36 66 -93 92 -127 76 -98 155 -228 224 -364
156 -308 212 -447 255 -624 8 -33 23 -92 34 -131 94 -346 140 -818 110 -1124
-13 -136 -48 -374 -59 -403 -6 -15 -15 -57 -21 -94 -6 -36 -18 -79 -26 -95 -8
-16 -22 -62 -30 -101 -7 -40 -28 -110 -45 -157 -17 -47 -39 -109 -50 -139 -10
-30 -46 -106 -79 -169 -33 -62 -63 -130 -66 -151 -9 -55 16 -103 75 -147 28
-21 74 -67 103 -103 86 -105 152 -141 207 -111 25 13 83 112 115 196 15 38 33
83 40 99 8 17 26 62 40 100 15 39 36 90 46 115 34 80 90 229 90 240 0 6 7 24
15 41 9 16 20 55 26 87 5 31 18 86 28 122 60 215 77 313 96 562 4 43 12 82 19
87 9 8 1013 11 3310 11 l3296 0 0 265 c0 245 -1 265 -17 266 -10 1 -427 0
-928 0 -829 -2 -991 2 -1012 22 -9 9 -22 170 -33 398 -5 113 -18 264 -29 335
-11 71 -23 161 -26 199 -4 39 -15 107 -26 151 -10 45 -19 100 -19 122 0 23 -9
65 -20 94 -10 29 -26 94 -35 143 -20 120 -50 259 -69 320 -8 28 -22 79 -31
115 -9 36 -24 99 -34 140 -11 41 -28 95 -39 120 -26 57 -36 112 -28 146 4 15
31 52 61 83 56 59 145 187 145 209 0 7 10 32 22 55 17 34 22 65 26 154 4 101
2 121 -22 197 -14 46 -26 91 -26 100 0 40 -117 234 -184 304 -96 102 -224 172
-373 202 -119 25 -177 25 -279 0 -170 -40 -282 -99 -372 -194 -55 -58 -152
-200 -152 -223 0 -7 -9 -32 -21 -55 -27 -53 -59 -212 -59 -295 0 -110 47 -247
123 -361 42 -62 195 -213 247 -243 60 -35 144 -69 260 -106 80 -25 99 -36 118
-63 12 -18 22 -46 22 -63 0 -33 29 -153 65 -272 14 -44 30 -105 35 -135 6 -30
17 -80 25 -110 8 -30 15 -68 15 -85 0 -16 11 -77 25 -135 14 -58 25 -120 25
-138 0 -18 9 -67 20 -110 10 -42 24 -133 30 -202 6 -69 15 -147 20 -175 15
-81 30 -258 37 -441 7 -193 10 -185 -72 -198 -59 -10 -1596 -15 -1645 -6 -23
4 -46 14 -50 21 -5 7 -11 64 -15 128 -13 253 -39 442 -109 811 -28 144 -54
255 -70 292 -9 21 -16 48 -16 60 -1 13 -8 41 -16 63 -32 86 -66 203 -80 273
-7 40 -19 82 -25 94 -7 12 -18 43 -25 68 -16 57 -55 149 -77 183 -9 15 -17 32
-17 39 0 7 -11 36 -24 63 -13 28 -26 77 -31 110 -10 83 -20 104 -60 120 -54
23 -86 18 -207 -34 -62 -26 -134 -56 -160 -65 -120 -44 -141 -146 -53 -263 20
-28 45 -72 55 -99 10 -27 25 -69 34 -94 9 -25 25 -63 35 -85 10 -22 22 -56 26
-75 4 -19 13 -48 20 -65 18 -39 50 -155 80 -280 13 -55 28 -113 34 -128 6 -16
11 -40 11 -55 1 -15 7 -45 15 -67 9 -22 22 -83 30 -135 8 -52 24 -144 35 -205
11 -60 27 -159 36 -220 9 -60 20 -132 25 -160 11 -71 10 -267 -1 -285 -8 -13
-116 -15 -857 -18 -584 -1 -857 1 -879 8 -18 6 -36 19 -39 29 -9 29 -45 283
-45 316 1 53 -105 479 -144 580 -15 39 -38 102 -51 140 -12 39 -32 93 -43 120
-11 28 -29 73 -40 101 -47 117 -162 353 -187 384 -7 8 -28 44 -46 80 -31 62
-90 155 -144 229 -37 50 -33 91 13 154 41 55 117 178 147 237 10 19 44 69 75
111 32 42 67 93 78 115 12 21 46 75 76 119 30 44 90 135 133 203 43 68 92 141
110 163 18 22 57 81 88 132 30 51 68 110 85 132 16 22 55 84 87 138 32 53 86
135 119 181 34 47 79 117 102 158 22 40 59 99 83 130 24 32 57 78 72 102 34
54 200 230 253 269 93 67 202 131 262 153 123 47 195 49 1402 46 1288 -3 2656
11 2710 27 59 18 65 26 65 78 0 52 0 50 -103 233 -91 161 -93 164 -145 189
l-45 22 -1868 -3 -1869 -3 -95 -31 c-270 -87 -466 -192 -675 -360 -91 -73
-257 -250 -295 -314 -18 -30 -43 -68 -57 -85 -21 -27 -265 -394 -383 -579 -41
-63 -267 -403 -310 -466 -10 -14 -38 -56 -62 -95 -25 -38 -115 -177 -201 -308
-86 -130 -157 -241 -157 -245 0 -5 -16 -27 -36 -50 -57 -67 -69 -62 -204 77
-111 115 -222 204 -435 348 -111 76 -145 107 -145 136 0 33 42 115 86 172 59
74 155 220 199 300 43 80 195 322 295 470 37 55 75 116 85 135 10 19 55 91
100 160 45 69 104 161 131 205 26 44 67 105 89 135 39 52 104 157 173 281 34
60 40 104 20 132 -7 9 -50 35 -96 57 -46 22 -102 53 -125 69 -95 64 -488 261
-592 296 -36 12 -130 51 -180 75 -11 6 -45 18 -75 29 -30 10 -100 35 -155 55
-55 20 -106 36 -113 36 -8 0 -71 22 -140 49 -70 27 -181 61 -247 75 -66 15
-158 35 -205 46 -47 11 -112 22 -145 25 -66 6 -235 35 -390 66 -97 19 -472 53
-743 66 -201 9 -729 -25 -867 -57 -44 -11 -127 -24 -183 -30 -57 -5 -108 -12
-112 -15 -5 -3 -55 -12 -112 -21 -57 -8 -130 -23 -163 -33 -33 -10 -85 -22
-115 -26 -30 -4 -66 -12 -80 -17 -14 -5 -61 -18 -105 -28 -44 -10 -127 -35
-185 -55 -58 -20 -125 -43 -150 -50 -68 -20 -163 -54 -183 -65 -10 -6 -46 -21
-80 -34 -34 -13 -84 -33 -112 -44 -27 -11 -72 -29 -100 -40 -27 -11 -77 -35
-110 -54 -65 -36 -149 -77 -260 -128 -38 -18 -81 -40 -95 -50 -27 -18 -111
-65 -250 -138 -101 -53 -467 -294 -530 -350 -25 -21 -72 -58 -105 -82 -256
-187 -697 -608 -880 -839 -16 -21 -59 -71 -93 -111 -35 -40 -89 -106 -120
-148 -32 -41 -66 -86 -77 -101 -11 -14 -40 -51 -65 -82 -148 -185 -468 -709
-559 -916 -16 -38 -60 -128 -96 -199 -37 -71 -84 -181 -105 -244 -22 -63 -53
-153 -70 -200 -17 -47 -36 -101 -42 -120 -5 -19 -20 -60 -33 -90 -12 -30 -35
-107 -50 -170 -15 -63 -35 -144 -45 -180 -57 -199 -130 -536 -130 -596 0 -18
-9 -83 -20 -145 -11 -63 -25 -208 -31 -324 -9 -172 -14 -212 -27 -222 -12 -10
-115 -13 -431 -13 -229 -1 -609 -2 -846 -3 -367 -2 -434 0 -460 13 l-30 15 0
150 c0 215 26 518 59 685 8 41 15 96 15 121 1 25 10 79 20 120 10 41 24 112
30 159 7 47 18 108 26 135 7 28 17 77 21 110 3 33 14 80 24 105 10 25 21 70
25 100 4 30 14 73 22 95 8 22 21 73 29 113 7 40 21 86 29 102 8 16 15 36 15
45 0 17 37 138 75 245 28 77 51 147 71 215 9 28 22 64 29 80 52 114 75 169 75
178 0 6 9 29 19 51 34 73 81 184 81 193 0 4 22 53 49 108 126 258 216 435 247
490 18 33 51 94 73 135 21 41 57 100 80 130 22 30 41 58 41 62 0 9 77 131 140
223 22 33 65 98 95 145 29 47 77 114 105 150 28 36 76 99 107 140 30 41 72 93
92 115 21 22 49 58 62 80 13 22 55 76 94 120 38 44 104 120 145 170 194 231
720 726 1008 949 43 33 110 88 150 122 39 35 86 71 103 80 36 18 109 69 194
135 33 26 89 64 125 84 36 21 103 66 150 100 47 35 119 81 161 103 41 22 109
60 150 84 41 25 117 66 170 92 53 25 147 75 210 111 62 36 118 65 125 65 6 0
38 13 70 29 72 36 227 103 394 172 241 98 953 333 1064 350 39 6 81 15 94 20
13 5 70 16 126 25 55 8 126 21 156 28 30 8 78 17 105 21 28 4 84 15 125 26 41
10 134 26 205 34 72 9 137 18 145 20 8 2 92 11 185 20 94 8 206 22 250 30 62
12 154 16 415 15 184 0 362 -2 395 -5 33 -3 184 -14 335 -25 151 -11 313 -24
360 -30 47 -5 153 -16 235 -25 83 -9 220 -29 305 -46 85 -16 191 -37 235 -45
108 -21 240 -51 355 -81 52 -14 120 -31 150 -39 64 -15 286 -88 511 -167 217
-76 513 -203 709 -305 91 -48 197 -101 235 -120 64 -31 184 -100 275 -158 19
-12 51 -29 70 -38 19 -9 48 -27 64 -40 32 -26 32 -28 21 -171 -8 -101 10 -215
45 -289 56 -116 195 -270 320 -355 110 -75 138 -86 262 -106 182 -28 253 -22
374 36 22 10 44 19 48 19 4 0 33 18 65 39 109 74 259 253 286 341 4 14 18 48
31 75 47 102 53 228 19 380 -15 66 -54 174 -71 196 -6 8 -27 42 -47 75 -52 87
-154 176 -288 252 -124 70 -365 95 -486 50 -32 -12 -69 -29 -83 -38 -14 -10
-36 -21 -50 -25 -14 -4 -43 -18 -66 -31 -64 -37 -113 -33 -168 15 -45 39 -148
111 -158 111 -6 0 -112 63 -131 78 -48 37 -627 312 -657 312 -7 0 -64 23 -126
50 -62 28 -117 50 -123 50 -6 0 -30 9 -53 19 -46 21 -143 53 -223 75 -27 8
-88 30 -135 51 -47 20 -114 44 -150 54 -36 10 -78 23 -95 29 -70 26 -204 62
-250 67 -27 4 -77 15 -110 25 -113 34 -250 69 -300 76 -27 4 -63 13 -80 19
-16 7 -55 16 -85 20 -30 4 -94 15 -142 25 -48 11 -133 24 -190 30 -57 6 -121
15 -143 20 -22 5 -94 14 -160 20 -130 11 -155 16 -155 31 0 5 -307 9 -788 9
-648 0 -790 -2 -802 -14z m5727 -1533 c123 -50 178 -137 177 -279 0 -58 -5
-81 -27 -123 -40 -77 -86 -129 -142 -159 -43 -23 -62 -26 -141 -27 -83 0 -94
2 -134 29 -60 40 -126 102 -152 145 -20 32 -23 47 -21 134 1 53 8 107 14 120
38 70 136 159 195 177 63 19 160 11 231 -17z m2868 -3629 c64 -33 126 -94 153
-147 15 -31 22 -65 24 -132 2 -81 0 -96 -25 -147 -57 -120 -239 -189 -375
-144 -72 24 -140 89 -185 176 -42 82 -45 108 -18 205 16 59 27 77 65 112 26
23 74 55 108 72 83 42 179 44 253 5z"/>
<path d="M10395 14009 c-153 -14 -246 -30 -298 -50 -28 -11 -102 -31 -166 -45
-63 -14 -165 -44 -226 -68 -60 -24 -121 -47 -135 -51 -14 -4 -75 -36 -136 -71
-61 -35 -141 -78 -178 -97 -285 -146 -596 -420 -827 -727 -157 -208 -179 -240
-249 -364 -158 -281 -222 -422 -269 -592 -11 -38 -33 -113 -49 -167 -17 -54
-40 -158 -51 -230 -12 -73 -26 -157 -32 -187 -15 -80 -22 -411 -11 -510 27
-240 57 -434 79 -510 89 -310 153 -466 302 -745 165 -307 465 -646 785 -889
50 -38 116 -88 146 -111 50 -38 168 -104 396 -219 120 -61 170 -82 269 -111
50 -14 144 -44 210 -65 110 -37 220 -59 460 -95 50 -7 118 -18 151 -25 105
-21 516 8 625 44 24 7 64 17 89 20 76 11 509 147 581 183 26 13 49 23 52 23 3
0 34 16 69 36 34 20 97 55 138 77 41 22 86 48 99 59 13 10 28 18 33 18 34 0
379 267 589 456 112 101 252 259 322 364 20 30 50 74 67 98 27 38 52 83 84
151 6 13 28 56 49 95 85 160 140 286 162 371 7 28 20 68 28 90 8 22 19 67 25
100 5 33 27 98 48 145 l39 85 0 460 c0 439 -1 466 -23 584 -13 68 -32 145 -42
170 -10 26 -21 69 -25 97 -4 27 -15 69 -25 94 -9 25 -20 63 -24 85 -4 22 -13
49 -20 60 -7 11 -27 58 -45 105 -44 114 -89 201 -220 432 -35 62 -73 124 -86
138 -12 14 -34 46 -49 72 -14 26 -49 71 -76 101 -27 29 -74 84 -105 123 -81
99 -199 218 -269 272 -34 25 -84 68 -112 95 -29 26 -74 63 -100 81 -160 107
-244 157 -376 223 -81 40 -170 86 -196 102 -56 33 -196 86 -297 111 -38 10
-101 28 -140 40 -38 12 -92 28 -120 36 -116 34 -686 54 -920 33z m851 -1730
c137 -42 260 -115 367 -218 85 -82 131 -162 161 -283 13 -51 28 -104 34 -118
17 -44 25 -170 11 -186 -16 -19 -416 -21 -442 -1 -13 9 -20 36 -27 98 -13 127
-41 177 -129 235 l-45 29 -420 -1 -421 -2 -59 -26 c-62 -28 -123 -75 -143
-111 -6 -11 -19 -61 -28 -109 -14 -76 -16 -159 -12 -669 4 -569 9 -660 39
-715 18 -34 122 -93 192 -109 72 -17 616 -35 686 -23 101 18 231 50 259 65 49
25 59 51 67 167 10 158 -3 151 256 146 l210 -3 20 -25 c18 -22 20 -34 14 -100
-9 -98 -42 -189 -106 -296 -107 -177 -188 -259 -318 -319 -31 -15 -68 -33 -82
-40 -14 -7 -68 -25 -120 -41 l-95 -29 -374 3 c-356 3 -379 4 -475 27 -101 24
-151 43 -256 93 -73 35 -235 197 -272 272 -47 95 -78 168 -78 185 0 8 -9 41
-20 72 -19 55 -20 83 -20 702 0 706 -4 648 63 846 33 98 61 152 118 231 44 61
83 92 204 167 142 87 158 90 595 97 206 3 421 7 476 8 79 2 117 -3 170 -19z"/>
<path d="M18784 9991 c-71 -12 -92 -25 -102 -69 -18 -73 -51 -238 -57 -285 -4
-27 -13 -66 -20 -87 -8 -22 -19 -82 -24 -134 -11 -98 -39 -227 -72 -331 -10
-33 -24 -85 -30 -115 -6 -30 -17 -66 -24 -80 -7 -14 -15 -43 -19 -65 -4 -22
-16 -67 -26 -100 -11 -33 -33 -107 -51 -165 -17 -58 -39 -125 -49 -150 -19
-44 -44 -110 -97 -255 -30 -83 -71 -179 -123 -290 -20 -44 -40 -91 -45 -105
-4 -14 -50 -113 -102 -220 -144 -296 -166 -340 -180 -352 -7 -6 -13 -15 -13
-20 0 -10 -71 -132 -135 -234 -18 -27 -43 -70 -55 -95 -48 -94 -182 -292 -314
-463 -34 -43 -77 -102 -96 -131 -19 -28 -62 -85 -96 -126 -33 -41 -73 -93 -90
-115 -16 -23 -67 -84 -113 -135 -46 -52 -109 -123 -141 -159 -212 -242 -250
-281 -565 -576 -274 -255 -517 -463 -659 -563 -359 -254 -660 -448 -801 -518
-22 -11 -100 -54 -173 -96 -74 -42 -136 -77 -138 -77 -3 0 -83 -39 -177 -86
-95 -48 -201 -99 -237 -114 -36 -15 -141 -60 -235 -99 -196 -83 -705 -253
-880 -294 -33 -8 -103 -26 -155 -41 -82 -22 -189 -48 -470 -112 -36 -8 -108
-19 -160 -24 -52 -5 -198 -23 -325 -40 -126 -17 -338 -37 -470 -45 -132 -8
-307 -19 -389 -25 -115 -8 -213 -7 -425 5 -451 25 -710 44 -806 59 -49 8 -182
29 -295 46 -113 17 -281 48 -375 70 -93 21 -201 43 -240 50 -72 12 -317 84
-510 150 -60 20 -157 52 -215 69 -122 38 -193 64 -344 129 -127 55 -613 298
-638 320 -22 19 -99 27 -126 13 -11 -6 -44 -50 -73 -98 -29 -49 -66 -106 -84
-128 -34 -43 -65 -94 -160 -255 -34 -58 -84 -140 -111 -183 -27 -42 -58 -94
-69 -115 -48 -87 -109 -188 -125 -207 -9 -11 -43 -65 -76 -120 -32 -55 -92
-149 -131 -209 -40 -60 -73 -113 -73 -118 0 -4 -35 -63 -79 -130 -43 -68 -99
-158 -124 -200 -25 -42 -74 -112 -110 -156 -67 -83 -83 -124 -69 -176 9 -32
13 -36 150 -122 50 -32 92 -64 92 -71 0 -10 25 -13 103 -13 102 0 103 0 115
28 6 15 37 65 67 112 30 47 67 107 81 135 15 27 51 88 81 135 30 47 75 120
101 164 91 151 117 193 153 237 20 24 54 79 77 121 23 42 76 127 118 188 42
62 97 148 121 193 25 44 64 104 86 132 23 28 57 85 76 128 25 55 39 77 52 77
18 0 150 -60 173 -79 6 -5 49 -23 96 -41 47 -18 135 -52 195 -76 61 -23 129
-48 152 -54 23 -6 45 -14 47 -19 3 -5 79 -32 168 -60 90 -29 190 -61 223 -72
210 -68 375 -117 465 -139 41 -9 100 -24 130 -33 30 -9 116 -27 190 -42 74
-14 178 -35 230 -45 52 -11 120 -22 150 -26 30 -3 102 -14 160 -24 468 -84
1000 -124 1315 -100 77 6 250 17 385 25 241 15 453 38 680 75 63 11 158 22
210 25 52 4 130 15 172 26 43 10 90 19 106 19 15 0 52 7 82 16 30 8 91 24 135
33 44 10 103 25 130 34 122 39 191 58 234 63 25 3 78 17 118 30 39 13 78 24
87 24 8 0 35 9 58 19 24 11 93 35 153 54 112 36 201 66 290 97 28 10 73 25
100 35 123 42 159 55 169 64 6 4 29 14 51 21 22 7 53 21 70 31 16 11 37 19 45
19 8 0 38 11 65 25 28 13 55 25 60 25 6 0 33 12 60 25 28 14 56 25 63 25 6 0
64 27 128 61 152 79 135 70 244 123 52 25 131 68 175 96 44 27 116 68 160 90
44 21 114 62 155 90 41 28 101 68 133 88 32 20 114 78 183 127 68 50 150 107
182 127 58 37 114 80 335 256 65 52 133 105 152 117 153 105 701 637 950 924
50 57 124 143 165 190 42 47 107 127 144 176 38 50 81 104 96 120 14 17 49 61
76 99 27 37 66 91 87 120 31 43 163 235 256 375 14 20 54 88 89 151 36 63 73
124 82 135 17 20 130 218 130 228 0 3 16 34 37 69 43 75 153 294 153 305 0 5
30 67 66 138 36 72 72 146 79 165 8 19 28 69 46 110 17 41 43 104 56 140 48
127 71 186 98 255 14 39 35 97 44 130 10 33 33 101 51 150 18 50 38 113 46
140 7 28 23 82 35 120 78 258 90 302 114 418 8 38 21 92 30 120 8 29 19 83 25
121 6 38 18 82 26 99 9 16 20 76 25 132 5 56 15 118 24 137 8 20 20 76 26 125
14 103 3 142 -43 154 -42 11 -328 18 -384 10z"/>
<path d="M2428 9980 c-95 -9 -154 -24 -179 -47 -28 -24 -29 -67 -3 -189 13
-66 29 -160 33 -210 5 -51 16 -116 25 -145 25 -88 58 -230 68 -294 6 -33 21
-94 33 -135 12 -41 35 -122 50 -180 52 -200 209 -700 250 -795 12 -27 34 -79
50 -115 15 -36 44 -101 65 -145 59 -121 98 -217 108 -262 12 -52 -2 -92 -55
-163 -87 -116 -123 -232 -123 -390 0 -139 19 -195 123 -369 115 -191 312 -330
495 -349 37 -4 123 -4 192 -1 149 8 220 31 338 111 95 64 147 118 216 221 78
120 94 156 111 253 31 180 9 306 -92 512 -40 82 -161 219 -222 253 -20 11 -47
26 -61 34 -55 32 -138 65 -162 65 -39 0 -234 37 -255 48 -20 11 -83 125 -83
151 0 9 -12 41 -26 71 -14 30 -40 84 -56 120 -16 36 -35 74 -41 85 -6 11 -18
47 -28 80 -21 72 -46 144 -70 205 -10 25 -22 63 -25 85 -4 22 -18 62 -30 90
-13 27 -24 57 -24 65 0 8 -9 33 -20 55 -11 22 -20 51 -20 65 0 14 -11 56 -25
94 -13 37 -27 94 -31 125 -4 31 -15 80 -25 110 -11 30 -19 65 -19 78 0 14 -11
57 -24 96 -14 40 -28 97 -31 127 -4 30 -11 66 -16 79 -5 12 -21 111 -35 219
-13 108 -30 207 -37 220 -32 64 -153 90 -339 72z m1187 -2749 c92 -44 158
-124 181 -219 16 -68 18 -163 4 -214 -13 -47 -75 -102 -171 -152 -68 -36 -77
-38 -136 -33 -101 10 -178 57 -267 164 -25 30 -39 155 -27 232 22 135 162 248
311 250 30 1 65 -9 105 -28z"/>
<path d="M16380 9977 c-37 -13 -41 -20 -79 -157 -12 -41 -21 -91 -21 -110 0
-19 -11 -66 -25 -105 -13 -38 -25 -79 -25 -90 0 -30 -93 -324 -141 -445 -12
-30 -31 -82 -44 -115 -12 -33 -29 -76 -38 -95 -8 -19 -30 -69 -48 -110 -79
-184 -234 -483 -319 -620 -116 -185 -259 -395 -349 -510 -36 -46 -82 -105
-101 -131 -89 -118 -314 -373 -431 -489 -110 -108 -352 -326 -424 -381 -27
-21 -79 -61 -115 -89 -36 -28 -87 -67 -115 -86 -27 -19 -90 -64 -140 -99 -49
-35 -121 -83 -160 -107 -38 -23 -115 -72 -170 -109 -131 -86 -152 -99 -265
-155 -52 -25 -113 -59 -135 -73 -22 -15 -62 -36 -90 -48 -141 -61 -194 -83
-205 -83 -7 0 -58 -20 -114 -44 -55 -24 -148 -60 -206 -80 -58 -20 -143 -49
-190 -65 -47 -16 -105 -34 -130 -41 -25 -6 -70 -21 -100 -34 -30 -13 -82 -27
-115 -31 -33 -3 -140 -22 -238 -40 -97 -19 -226 -41 -285 -49 -59 -8 -172 -24
-252 -35 -201 -28 -648 -52 -866 -47 -190 5 -310 17 -409 42 -32 9 -98 20
-146 25 -47 5 -93 11 -102 14 -19 8 -29 35 -57 155 -13 52 -34 118 -48 145
-68 136 -205 280 -322 339 -131 65 -350 83 -524 42 -236 -54 -416 -238 -501
-508 -25 -82 -27 -95 -22 -235 4 -139 6 -153 35 -221 37 -85 52 -109 141 -215
115 -138 257 -233 381 -257 68 -13 267 -13 348 0 101 17 196 68 303 166 108
99 88 95 299 57 359 -65 1015 -90 1375 -54 342 35 632 83 915 149 47 11 128
30 180 42 119 27 435 130 648 210 92 34 396 173 537 246 379 194 415 214 510
285 28 20 75 49 105 64 30 15 102 62 160 105 58 42 124 90 147 106 93 65 353
273 423 338 351 327 706 709 855 921 27 39 65 87 85 109 44 49 243 361 409
644 75 128 291 568 291 592 0 13 53 141 75 181 22 40 71 179 79 224 4 21 14
51 22 66 7 15 20 55 28 90 17 78 41 149 68 209 26 58 64 191 73 255 4 28 15
68 25 90 9 22 23 77 30 122 16 99 5 126 -57 136 -67 12 -386 7 -423 -6z
m-7192 -4323 c85 -42 146 -142 162 -268 16 -130 -30 -233 -132 -296 -61 -38
-157 -64 -201 -55 -56 13 -173 72 -207 107 -18 18 -44 57 -58 87 -23 49 -24
62 -19 157 4 83 9 111 28 145 78 139 276 196 427 123z"/>
</g>
</svg>
